<svg aria-hidden="true" style="position:absolute;width:0;height:0;overflow:hidden" xmlns="http://www.w3.org/2000/svg"><defs>
<symbol id="icon-Icon-3" viewBox="0 0 26 32"><path fill="#fff" style="fill:var(--color3, #fff)" d="M9.469 18.139a1.413 1.413 0 0 0-1.997 1.997l1.997-1.997zm2.139 4.136-.998.998a1.413 1.413 0 0 0 1.997 0l-.998-.998zm7.273-5.277a1.413 1.413 0 0 0-1.997-1.997l1.997 1.997zm3.864-8.841v18.824h2.824V8.157h-2.824zM21.02 28.706H5.334v2.824H21.02v-2.824zM3.608 26.98V8.156H.784V26.98h2.824zM5.333 6.431H8.47V3.607H5.333v2.824zm12.55 0h3.137V3.607h-3.137v2.824zM5.333 28.706a1.726 1.726 0 0 1-1.726-1.725H.783a4.55 4.55 0 0 0 4.549 4.549v-2.824zm17.412-1.726c0 .953-.773 1.725-1.725 1.725v2.824a4.55 4.55 0 0 0 4.549-4.549h-2.824zm2.824-18.823a4.55 4.55 0 0 0-4.549-4.549v2.824c.953 0 1.725.773 1.725 1.726h2.824zm-21.961 0c0-.953.773-1.726 1.725-1.726V3.607A4.55 4.55 0 0 0 .784 8.156h2.824zm3.864 11.979 3.137 3.137 1.997-1.997-3.137-3.137-1.997 1.997zm5.134 3.137 6.274-6.274-1.997-1.997-6.275 6.275 1.997 1.997zm-.998-19.979h3.137V.47h-3.137v2.824zm3.137 3.451h-3.137v2.824h3.137V6.745zm-3.137 0a1.725 1.725 0 0 1-1.725-1.726H7.059a4.55 4.55 0 0 0 4.549 4.549V6.744zm4.863-1.725c0 .953-.773 1.726-1.726 1.726V9.57a4.55 4.55 0 0 0 4.549-4.549H16.47zm-1.726-1.726c.953 0 1.726.773 1.726 1.726h2.824A4.55 4.55 0 0 0 14.746.471v2.824zM11.608.471A4.55 4.55 0 0 0 7.059 5.02h2.824c0-.953.773-1.726 1.725-1.726V.47z"/>
</symbol>
<symbol id="icon-check" viewBox="0 0 32 32"><path fill="none" stroke="#46b277" style="stroke:var(--color1, #46b277)" stroke-linejoin="round" stroke-linecap="round" stroke-width="3.2" d="m11.2 16 3.2 3.2 6.4-6.4m9.6 3.2c0 7.953-6.447 14.4-14.4 14.4S1.6 23.953 1.6 16 8.047 1.6 16 1.6 30.4 8.047 30.4 16z"/>
</symbol>
<symbol id="icon-down" viewBox="0 0 53 32"><path fill="#eb5757" style="fill:var(--color2, #eb5757)" d="M1.562 1.562a5.334 5.334 0 0 1 7.543 0l17.562 17.562L44.229 1.562a5.334 5.334 0 1 1 7.543 7.543L30.439 30.438a5.334 5.334 0 0 1-7.543 0L1.563 9.105a5.334 5.334 0 0 1 0-7.543z"/>
</symbol>
<symbol id="icon-Group-974" viewBox="0 0 35 32"><path fill="#fff" style="fill:var(--color3, #fff)" d="M1.755.032c.871 0 1.577.706 1.577 1.577v28.636a1.577 1.577 0 1 1-3.154 0V1.609C.178.738.884.032 1.755.032z"/><path fill="#1463ff" style="fill:var(--color4, #1463ff)" d="M1.755 11.84c.871 0 1.577.706 1.577 1.577v16.828a1.577 1.577 0 1 1-3.154 0V13.417c0-.871.706-1.577 1.577-1.577z"/><path fill="#fff" style="fill:var(--color3, #fff)" d="M9.553.032c.871 0 1.577.706 1.577 1.577V30.25a1.577 1.577 0 1 1-3.154 0V1.609c0-.871.706-1.577 1.577-1.577z"/><path fill="#1463ff" style="fill:var(--color4, #1463ff)" d="M9.553 8.048c.871 0 1.577.706 1.577 1.577V30.25a1.577 1.577 0 1 1-3.154 0V9.625c0-.871.706-1.577 1.577-1.577z"/><path fill="#fff" style="fill:var(--color3, #fff)" d="M17.351.032c.871 0 1.577.706 1.577 1.577V30.25a1.577 1.577 0 1 1-3.154 0V1.609c0-.871.706-1.577 1.577-1.577z"/><path fill="#1463ff" style="fill:var(--color4, #1463ff)" d="M17.351 13.926c.871 0 1.577.706 1.577 1.577V30.25a1.577 1.577 0 1 1-3.154 0V15.503c0-.871.706-1.577 1.577-1.577z"/><path fill="#fff" style="fill:var(--color3, #fff)" d="M25.149.032c.871 0 1.577.706 1.577 1.577V30.25a1.577 1.577 0 1 1-3.154 0V1.609c0-.871.706-1.577 1.577-1.577z"/><path fill="#1463ff" style="fill:var(--color4, #1463ff)" d="M25.149 17.132c.871 0 1.577.706 1.577 1.577V30.25a1.577 1.577 0 1 1-3.154 0V18.709c0-.871.706-1.577 1.577-1.577z"/><path fill="#fff" style="fill:var(--color3, #fff)" d="M32.948.032c.871 0 1.577.706 1.577 1.577V30.25a1.577 1.577 0 1 1-3.154 0V1.609c0-.871.706-1.577 1.577-1.577z"/><path fill="#1463ff" style="fill:var(--color4, #1463ff)" d="M32.948 20.339c.871 0 1.577.706 1.577 1.577v8.335a1.577 1.577 0 1 1-3.154 0v-8.335c0-.871.706-1.577 1.577-1.577z"/>
</symbol>
<symbol id="icon-Icon-6" viewBox="0 0 53 32"><path fill="#50cd89" style="fill:var(--color5, #50cd89)" d="M51.771 30.438a5.332 5.332 0 0 1-7.542 0L26.667 12.876 9.105 30.438a5.334 5.334 0 1 1-7.543-7.543L22.895 1.562a5.334 5.334 0 0 1 7.543 0l21.333 21.333a5.334 5.334 0 0 1 0 7.543z"/>
</symbol>
<symbol id="icon-Group-973" viewBox="0 0 35 32"><path fill="#fff" style="fill:var(--color3, #fff)" d="M1.754.174c.871 0 1.577.706 1.577 1.577v28.487a1.577 1.577 0 1 1-3.154 0V1.751C.177.88.883.174 1.754.174z"/><path fill="#1463ff" style="fill:var(--color4, #1463ff)" d="M1.754 17.457c.871 0 1.577.706 1.577 1.577v11.204a1.577 1.577 0 1 1-3.154 0V19.034c0-.871.706-1.577 1.577-1.577z"/><path fill="#fff" style="fill:var(--color3, #fff)" d="M9.553.174c.871 0 1.577.706 1.577 1.577v28.487a1.577 1.577 0 1 1-3.154 0V1.751c0-.871.706-1.577 1.577-1.577z"/><path fill="#1463ff" style="fill:var(--color4, #1463ff)" d="M9.553 11.873c.871 0 1.577.706 1.577 1.577v16.788a1.577 1.577 0 1 1-3.154 0V13.45c0-.871.706-1.577 1.577-1.577z"/><path fill="#fff" style="fill:var(--color3, #fff)" d="M17.351.174c.871 0 1.577.706 1.577 1.577v28.487a1.577 1.577 0 1 1-3.154 0V1.751c0-.871.706-1.577 1.577-1.577z"/><path fill="#1463ff" style="fill:var(--color4, #1463ff)" d="M17.351 14.798c.871 0 1.577.706 1.577 1.577v13.863a1.577 1.577 0 1 1-3.154 0V16.375c0-.871.706-1.577 1.577-1.577z"/><path fill="#fff" style="fill:var(--color3, #fff)" d="M25.149.173c.871 0 1.577.706 1.577 1.577v28.487a1.577 1.577 0 1 1-3.154 0V1.75c0-.871.706-1.577 1.577-1.577z"/><path fill="#1463ff" style="fill:var(--color4, #1463ff)" d="M25.149 8.15c.871 0 1.577.706 1.577 1.577v20.51a1.577 1.577 0 1 1-3.154 0V9.727c0-.871.706-1.577 1.577-1.577z"/><path fill="#fff" style="fill:var(--color3, #fff)" d="M32.948.173c.871 0 1.577.706 1.577 1.577v28.487a1.577 1.577 0 1 1-3.154 0V1.75c0-.871.706-1.577 1.577-1.577z"/><path fill="#1463ff" style="fill:var(--color4, #1463ff)" d="M32.948 3.364c.871 0 1.577.706 1.577 1.577v25.297a1.577 1.577 0 1 1-3.154 0V4.941c0-.871.706-1.577 1.577-1.577z"/>
</symbol>
<symbol id="icon-Icon-5" viewBox="0 0 33 32"><path fill="none" stroke="#fff" style="stroke:var(--color3, #fff)" stroke-linejoin="round" stroke-linecap="round" stroke-width="2.909" d="m11.636 16.485 3.232 3.232 6.465-6.465m9.08-6.489A19.32 19.32 0 0 1 16.485 1.85 19.32 19.32 0 0 1 2.557 6.763a19.433 19.433 0 0 0-.618 4.874c0 9.037 6.181 16.63 14.545 18.783 8.365-2.153 14.545-9.746 14.545-18.783 0-1.683-.215-3.316-.617-4.874z"/>
</symbol>
<symbol id="icon-Icon-4" viewBox="0 0 26 32"><path fill="none" stroke="#fff" style="stroke:var(--color3, #fff)" stroke-linecap="round" stroke-width="2.824" d="M8.471 5.02H5.334a3.137 3.137 0 0 0-3.137 3.137v18.824a3.137 3.137 0 0 0 3.137 3.137H21.02a3.137 3.137 0 0 0 3.137-3.137V8.157A3.137 3.137 0 0 0 21.02 5.02h-3.137m-9.412 0a3.137 3.137 0 0 0 3.137 3.137h3.137a3.137 3.137 0 0 0 3.137-3.137m-9.411 0a3.137 3.137 0 0 1 3.137-3.137h3.137a3.137 3.137 0 0 1 3.137 3.137M13.177 16h4.706m-4.706 6.275h4.706M8.471 16h.016m-.016 6.275h.016"/>
</symbol>
<symbol id="icon-Contact-Us" viewBox="0 0 258 32"><path d="M27.343 10.559h-5.231c-.149-.858-.424-1.618-.825-2.28-.401-.671-.9-1.24-1.497-1.706s-1.277-.816-2.042-1.049A7.978 7.978 0 0 0 15.3 5.16c-1.557 0-2.937.392-4.14 1.175-1.203.774-2.145 1.911-2.825 3.413-.681 1.492-1.021 3.315-1.021 5.469 0 2.191.34 4.037 1.021 5.538.69 1.492 1.632 2.62 2.825 3.385 1.203.755 2.578 1.133 4.126 1.133.858 0 1.66-.112 2.406-.335a6.58 6.58 0 0 0 2.028-1.021 6.008 6.008 0 0 0 1.524-1.65c.42-.653.709-1.399.867-2.238l5.231.028a11.259 11.259 0 0 1-1.273 3.832 11.305 11.305 0 0 1-2.531 3.161c-1.044.905-2.266 1.613-3.664 2.126-1.399.503-2.951.755-4.657.755-2.518 0-4.765-.583-6.741-1.748s-3.534-2.849-4.671-5.049c-1.138-2.2-1.706-4.839-1.706-7.916 0-3.086.573-5.725 1.72-7.916 1.147-2.2 2.709-3.883 4.685-5.049S12.718.505 15.217.505c1.594 0 3.077.224 4.448.671s2.592 1.105 3.664 1.972a10.494 10.494 0 0 1 2.643 3.161c.699 1.24 1.156 2.657 1.371 4.252zm13.898 19.399c-2.098 0-3.916-.462-5.455-1.385s-2.732-2.215-3.581-3.874c-.839-1.66-1.259-3.599-1.259-5.818s.42-4.163 1.259-5.832c.849-1.669 2.042-2.965 3.581-3.888s3.357-1.385 5.455-1.385 3.916.462 5.455 1.385 2.727 2.219 3.566 3.888c.849 1.669 1.273 3.613 1.273 5.832s-.424 4.159-1.273 5.818c-.839 1.66-2.028 2.951-3.566 3.874s-3.357 1.385-5.455 1.385zm.028-4.056c1.137 0 2.089-.312 2.853-.937.765-.634 1.333-1.482 1.706-2.545.382-1.063.574-2.247.574-3.552 0-1.315-.191-2.503-.574-3.566-.373-1.072-.942-1.925-1.706-2.559s-1.716-.951-2.853-.951c-1.166 0-2.135.317-2.909.951-.765.634-1.338 1.487-1.72 2.559-.373 1.063-.559 2.252-.559 3.566 0 1.305.186 2.49.559 3.552.382 1.063.956 1.911 1.72 2.545.774.625 1.743.937 2.909.937zm19.626-8.951v12.587h-5.063V8.055h4.839v3.65h.252a6.133 6.133 0 0 1 2.364-2.867c1.091-.709 2.438-1.063 4.042-1.063 1.482 0 2.774.317 3.874.951 1.11.634 1.968 1.552 2.574 2.755.615 1.203.918 2.662.909 4.378v13.678h-5.063V16.642c0-1.436-.373-2.559-1.119-3.371-.737-.811-1.758-1.217-3.063-1.217-.886 0-1.674.196-2.364.587-.681.382-1.217.937-1.608 1.664-.382.727-.574 1.608-.574 2.643zm29.664-8.895v3.916h-12.35V8.056h12.35zm-9.3-5.147h5.063v20.168c0 .681.102 1.203.308 1.567.214.354.494.597.839.727s.727.196 1.147.196c.317 0 .606-.023.867-.07.27-.047.476-.089.615-.126l.853 3.958a11.39 11.39 0 0 1-1.161.308c-.494.112-1.1.177-1.818.196-1.268.037-2.41-.154-3.426-.573a5.336 5.336 0 0 1-2.42-1.986c-.587-.895-.876-2.014-.867-3.357V2.91zm19.716 27.063c-1.361 0-2.587-.242-3.678-.727a6.003 6.003 0 0 1-2.574-2.182c-.625-.96-.937-2.145-.937-3.552 0-1.212.224-2.214.671-3.007s1.058-1.427 1.832-1.902a9.252 9.252 0 0 1 2.615-1.077 21.118 21.118 0 0 1 3.035-.545c1.259-.131 2.28-.247 3.063-.35.783-.112 1.352-.28 1.706-.503.364-.233.545-.592.545-1.077v-.084c0-1.054-.312-1.869-.937-2.448s-1.525-.867-2.699-.867c-1.24 0-2.224.27-2.951.811-.718.541-1.203 1.18-1.455 1.916l-4.727-.671c.373-1.305.989-2.396 1.846-3.273.858-.886 1.907-1.548 3.147-1.986 1.24-.448 2.611-.671 4.112-.671 1.035 0 2.065.121 3.091.364s1.963.643 2.811 1.203c.849.55 1.529 1.301 2.042 2.252.522.951.783 2.14.783 3.566V29.54h-4.867v-2.951h-.168a6.19 6.19 0 0 1-1.301 1.679c-.55.513-1.245.927-2.084 1.245-.83.308-1.804.462-2.923.462zm1.315-3.72c1.016 0 1.897-.201 2.643-.601.746-.41 1.319-.951 1.72-1.622.41-.671.615-1.403.615-2.196v-2.531c-.159.131-.429.252-.811.364-.373.112-.793.21-1.259.294s-.928.159-1.385.224l-1.189.168c-.755.103-1.431.27-2.028.503s-1.068.559-1.413.979c-.345.41-.517.942-.517 1.594 0 .932.34 1.636 1.021 2.112s1.548.713 2.601.713zm24.49 3.706c-2.145 0-3.986-.471-5.525-1.413-1.529-.942-2.708-2.242-3.538-3.902-.82-1.669-1.231-3.59-1.231-5.762 0-2.182.42-4.107 1.259-5.776.839-1.678 2.023-2.984 3.552-3.916 1.538-.942 3.357-1.413 5.455-1.413 1.744 0 3.287.322 4.629.965 1.352.634 2.429 1.534 3.231 2.699.802 1.156 1.259 2.508 1.371 4.056h-4.839c-.196-1.035-.662-1.897-1.399-2.587-.727-.699-1.702-1.049-2.923-1.049-1.035 0-1.944.28-2.727.839-.783.55-1.394 1.343-1.832 2.378-.429 1.035-.643 2.275-.643 3.72 0 1.464.214 2.723.643 3.776.429 1.044 1.03 1.851 1.804 2.42.783.559 1.702.839 2.755.839.746 0 1.413-.14 2-.419.597-.289 1.096-.704 1.497-1.245s.676-1.198.825-1.972h4.839c-.121 1.52-.569 2.867-1.343 4.042-.774 1.166-1.827 2.079-3.161 2.741-1.333.653-2.9.979-4.699.979zm24.087-21.902v3.916h-12.35V8.056h12.35zm-9.3-5.147h5.063v20.168c0 .681.102 1.203.308 1.567.214.354.494.597.839.727s.727.196 1.147.196c.317 0 .606-.023.867-.07.27-.047.476-.089.615-.126l.853 3.958a11.39 11.39 0 0 1-1.161.308c-.494.112-1.1.177-1.818.196-1.268.037-2.41-.154-3.426-.573a5.336 5.336 0 0 1-2.42-1.986c-.587-.895-.876-2.014-.867-3.357V2.91zM183.15.895h5.189v18.713c0 2.051-.485 3.855-1.455 5.413-.96 1.557-2.312 2.774-4.056 3.65-1.744.867-3.781 1.301-6.112 1.301-2.34 0-4.382-.433-6.126-1.301-1.744-.876-3.096-2.093-4.056-3.65s-1.44-3.361-1.44-5.413V.895h5.189v18.28c0 1.193.261 2.256.783 3.189a5.702 5.702 0 0 0 2.238 2.196c.96.522 2.098.783 3.413.783s2.452-.261 3.413-.783c.97-.531 1.715-1.263 2.238-2.196s.783-1.995.783-3.189V.895zm27.584 12.839-4.615.503a3.714 3.714 0 0 0-.685-1.315c-.317-.41-.746-.741-1.287-.993s-1.203-.378-1.986-.378c-1.054 0-1.939.228-2.657.685-.709.457-1.058 1.049-1.049 1.776-.009.625.219 1.133.685 1.524.476.392 1.259.713 2.35.965l3.665.783c2.032.438 3.543 1.133 4.531 2.084.998.951 1.501 2.196 1.51 3.734-.009 1.352-.406 2.546-1.189 3.58-.774 1.026-1.851 1.827-3.231 2.406s-2.965.867-4.755.867c-2.629 0-4.746-.55-6.35-1.65-1.604-1.11-2.559-2.653-2.867-4.629l4.937-.476c.224.97.699 1.702 1.426 2.196s1.674.741 2.839.741c1.203 0 2.168-.247 2.895-.741.737-.494 1.105-1.105 1.105-1.832 0-.615-.238-1.124-.713-1.524-.466-.401-1.194-.709-2.182-.923l-3.664-.769c-2.061-.429-3.585-1.152-4.574-2.168-.988-1.026-1.478-2.322-1.469-3.888-.009-1.324.35-2.471 1.077-3.441.737-.979 1.758-1.734 3.063-2.266 1.315-.541 2.83-.811 4.545-.811 2.518 0 4.499.536 5.944 1.608 1.455 1.072 2.354 2.522 2.699 4.35zm31.944 16.84-2.881-2.853 8.629-8.629h-20.964v-4.168h20.964l-8.629-8.615 2.881-2.867 13.565 13.566-13.565 13.567z"/>
</symbol>
<symbol id="icon-schedule-task" viewBox="0 0 32 32"><path fill="none" stroke="#fff" style="stroke:var(--color3, #fff)" stroke-linejoin="round" stroke-linecap="round" stroke-width="2.824" d="M9.725 8.157V1.883m12.55 6.274V1.883M8.157 14.431h15.686M5.02 30.118h21.961a3.137 3.137 0 0 0 3.137-3.137V8.157a3.137 3.137 0 0 0-3.137-3.137H5.02a3.137 3.137 0 0 0-3.137 3.137v18.824a3.137 3.137 0 0 0 3.137 3.137z"/>
</symbol>
<symbol id="icon-arrow-down" viewBox="0 0 32 32"><path fill="none" stroke="#e35454" style="stroke:var(--color6, #e35454)" stroke-linejoin="round" stroke-linecap="round" stroke-width="4.923" d="m7.04 18.531 9.16 9.301 9.301-9.16"/><path fill="none" stroke="#e35454" style="stroke:var(--color6, #e35454)" stroke-linecap="round" stroke-width="4.923" d="m16.37 5.68-.17 22.153"/>
</symbol>
<symbol id="icon-arrow-up" viewBox="0 0 32 32"><path fill="none" stroke="#60d39c" style="stroke:var(--color7, #60d39c)" stroke-linejoin="round" stroke-linecap="round" stroke-width="4.923" d="m6.946 14.757 9.233-9.228 9.228 9.233"/><path fill="none" stroke="#60d39c" style="stroke:var(--color7, #60d39c)" stroke-linecap="round" stroke-width="4.923" d="m16.173 27.683.006-22.154"/>
</symbol>
<symbol id="icon-Graph" viewBox="0 0 38 32"><path fill="#808d9e" style="fill:var(--color8, #808d9e)" d="M8 28.883h.227v1.34c0 .12-.022.221-.066.305s-.106.147-.186.19a.588.588 0 0 1-.283.065c-.103 0-.194-.019-.274-.056s-.143-.091-.189-.161-.069-.152-.069-.248h.223c0 .053.013.099.039.139s.063.07.11.091a.381.381 0 0 0 .325-.008.253.253 0 0 0 .104-.121.48.48 0 0 0 .037-.197v-1.34zm1.066 1.907c-.089 0-.17-.017-.243-.05s-.13-.083-.173-.147a.414.414 0 0 1-.064-.234c0-.081.016-.146.048-.196s.074-.09.127-.119c.053-.029.112-.05.176-.064s.13-.026.195-.035l.208-.025a.32.32 0 0 0 .117-.03c.025-.014.038-.038.038-.073v-.007c0-.09-.025-.16-.074-.21s-.123-.075-.222-.075c-.103 0-.184.023-.243.068s-.1.093-.124.145l-.205-.073a.503.503 0 0 1 .347-.301.813.813 0 0 1 .372-.012.511.511 0 0 1 .171.065c.056.033.102.083.138.149s.055.155.055.267v.926h-.216v-.191h-.011a.405.405 0 0 1-.209.187.534.534 0 0 1-.208.037zm.033-.194c.085 0 .157-.017.216-.05a.343.343 0 0 0 .18-.298v-.198c-.009.011-.029.021-.06.03s-.066.016-.106.023l-.116.017-.091.011c-.056.007-.109.019-.157.036s-.087.04-.117.072a.186.186 0 0 0-.044.13c0 .075.028.132.083.17s.127.057.213.057zm1.222-.684v.846h-.216v-1.406h.209v.22h.018c.033-.071.083-.129.15-.172s.154-.066.26-.066c.095 0 .178.02.25.059s.127.097.167.176a.65.65 0 0 1 .059.297v.893h-.216v-.879c0-.11-.029-.197-.086-.258s-.136-.093-.236-.093c-.069 0-.131.015-.185.045s-.096.074-.127.131-.047.127-.047.209z"/><path fill="#1d1e25" style="fill:var(--color9, #1d1e25)" opacity=".7" d="M.157 1.678v-.223h.447v1.566H.357V1.679h-.2zm.783.539c0-.248.042-.441.125-.58.084-.14.229-.21.434-.21s.349.07.432.21c.084.139.127.332.127.58 0 .251-.042.447-.127.588-.083.14-.227.21-.432.21s-.349-.07-.434-.21C.982 2.663.94 2.467.94 2.217zm.876 0c0-.116-.008-.214-.024-.294a.376.376 0 0 0-.09-.195c-.046-.052-.114-.077-.204-.077s-.158.026-.204.077a.386.386 0 0 0-.092.195c-.014.08-.021.178-.021.294 0 .12.007.221.021.303s.044.147.09.198c.047.05.116.075.206.075s.158-.025.204-.075c.047-.05.078-.116.092-.198s.021-.183.021-.303zm1 .213.546.591h-.331l-.438-.509v.509h-.245V1.432h.245v.923l.43-.518h.339l-.546.593zM1.576 13.263H.857v.427a.337.337 0 0 1 .133-.101.462.462 0 0 1 .191-.041c.12 0 .218.026.292.077.076.052.13.117.161.195a.64.64 0 0 1 .049.249c0 .106-.021.2-.062.284a.442.442 0 0 1-.183.193.577.577 0 0 1-.296.071c-.156 0-.281-.039-.376-.116s-.151-.18-.17-.307h.238a.273.273 0 0 0 .105.161.34.34 0 0 0 .204.058c.102 0 .178-.031.228-.092a.367.367 0 0 0 .077-.245c0-.103-.026-.182-.077-.236-.052-.056-.127-.084-.228-.084a.29.29 0 0 0-.178.054.29.29 0 0 0-.103.142H.63v-.904h.945v.215zm.863.764.546.591h-.331l-.438-.509v.509h-.245v-1.589h.245v.924l.43-.518h.339l-.546.593zM1.159 25.412c0-.248.042-.441.125-.58.084-.14.229-.21.434-.21s.349.07.432.21c.084.139.127.332.127.58 0 .251-.042.447-.127.588-.083.14-.227.21-.432.21s-.349-.07-.434-.21c-.083-.142-.125-.338-.125-.588zm.876 0c0-.116-.008-.214-.024-.294a.376.376 0 0 0-.09-.195c-.046-.052-.114-.077-.204-.077s-.158.026-.204.077a.386.386 0 0 0-.092.195c-.014.08-.021.178-.021.294 0 .12.007.221.021.303s.044.148.09.198c.047.05.116.075.206.075s.158-.025.204-.075c.047-.05.078-.116.092-.198s.021-.183.021-.303z"/><path fill="#808d9e" style="fill:var(--color8, #808d9e)" d="M31.489 28.883h.271l.637 1.556h.022l.637-1.556h.271v1.874h-.212v-1.424h-.018l-.586 1.424h-.205l-.586-1.424h-.018v1.424h-.212v-1.874zm2.677 1.907c-.089 0-.17-.017-.242-.05s-.13-.083-.173-.147a.414.414 0 0 1-.064-.234c0-.081.016-.146.048-.196s.074-.09.127-.119c.053-.029.112-.05.176-.064s.13-.026.195-.035l.208-.025a.32.32 0 0 0 .117-.03c.025-.014.037-.038.037-.073v-.007c0-.09-.025-.16-.074-.21s-.123-.075-.222-.075c-.103 0-.184.023-.243.068s-.1.093-.123.145l-.205-.073a.493.493 0 0 1 .347-.301.813.813 0 0 1 .372-.012.511.511 0 0 1 .171.065c.055.033.102.083.138.149s.055.155.055.267v.926h-.216v-.191h-.011a.405.405 0 0 1-.209.187.534.534 0 0 1-.208.037zm.033-.194c.085 0 .157-.017.216-.05a.343.343 0 0 0 .18-.298v-.198c-.009.011-.029.021-.06.03s-.066.016-.106.023l-.116.017-.091.011c-.056.007-.109.019-.157.036s-.087.04-.117.072a.186.186 0 0 0-.044.13c0 .075.028.132.083.17s.127.057.213.057zm1.005.161v-1.406h.209v.212h.015c.026-.07.072-.126.139-.169s.143-.065.227-.065a1.307 1.307 0 0 1 .113.004v.22a.7.7 0 0 0-.131-.014c-.068 0-.129.014-.183.043s-.095.067-.127.117a.31.31 0 0 0-.046.169v.89h-.216zM19.462 30.757v-1.874h1.124v.201h-.897v.633h.813v.201h-.813v.838h-.227zm1.969.03c-.135 0-.252-.03-.351-.09s-.173-.145-.226-.253c-.052-.108-.079-.235-.079-.379s.026-.271.079-.381c.053-.11.127-.196.221-.258s.206-.093.333-.093c.073 0 .146.012.217.037a.552.552 0 0 1 .335.335c.035.089.052.2.052.331v.091h-1.084v-.187h.864c0-.079-.016-.15-.048-.212a.366.366 0 0 0-.337-.201c-.086 0-.16.021-.223.064s-.11.097-.144.165a.478.478 0 0 0-.05.218v.125c0 .106.018.196.055.27s.089.129.155.167a.451.451 0 0 0 .23.057c.057 0 .108-.008.154-.024s.086-.041.12-.073a.337.337 0 0 0 .078-.123l.209.059c-.022.071-.059.133-.111.187s-.116.095-.192.125a.718.718 0 0 1-.257.044zm.94-.03v-1.874h.216v.692h.018c.016-.024.038-.056.066-.093s.07-.073.123-.102a.447.447 0 0 1 .218-.046.56.56 0 0 1 .525.341.898.898 0 0 1 .076.384c0 .149-.025.278-.076.387s-.121.193-.21.253a.552.552 0 0 1-.31.089c-.09 0-.163-.015-.217-.045s-.096-.065-.125-.103a1.768 1.768 0 0 1-.068-.097h-.026v.216h-.209zm.213-.703c0 .106.015.2.047.281s.076.144.136.189c.06.045.133.068.22.068.09 0 .166-.024.226-.072s.107-.113.137-.194a.767.767 0 0 0 .047-.273c0-.099-.015-.188-.046-.267s-.075-.143-.136-.189a.36.36 0 0 0-.228-.071.36.36 0 0 0-.357.252.775.775 0 0 0-.046.276z"/><path fill="#eb6e46" style="fill:var(--color10, #eb6e46);stroke:var(--color3, #fff)" stroke="#fff" stroke-width=".644" d="M9.503 3.772c.89 0 1.611.721 1.611 1.611v8.061a1.61 1.61 0 1 1-3.222 0V5.383c0-.89.721-1.611 1.611-1.611z"/><path fill="#20bff7" style="fill:var(--color11, #20bff7);stroke:var(--color3, #fff)" stroke="#fff" stroke-width=".644" d="M9.503 6.95c.89 0 1.611.721 1.611 1.611v8.061a1.61 1.61 0 1 1-3.222 0V8.561c0-.89.721-1.611 1.611-1.611z"/><path fill="#2280ff" style="fill:var(--color12, #2280ff);stroke:var(--color3, #fff)" stroke="#fff" stroke-width=".644" d="M9.503 14.963c.89 0 1.611.721 1.611 1.611v8.061a1.61 1.61 0 1 1-3.222 0v-8.061c0-.89.721-1.611 1.611-1.611z"/><path fill="#eb6e46" style="fill:var(--color10, #eb6e46);stroke:var(--color3, #fff)" stroke="#fff" stroke-width=".644" d="M21.53 11.095c.89 0 1.611.721 1.611 1.611v4.358a1.61 1.61 0 1 1-3.222 0v-4.358c0-.89.721-1.611 1.611-1.611z"/><path fill="#20bff7" style="fill:var(--color11, #20bff7);stroke:var(--color3, #fff)" stroke="#fff" stroke-width=".644" d="M21.53 16.345c.89 0 1.611.721 1.611 1.611v4.358a1.61 1.61 0 1 1-3.222 0v-4.358c0-.89.721-1.611 1.611-1.611z"/><path fill="#2280ff" style="fill:var(--color12, #2280ff);stroke:var(--color3, #fff)" stroke="#fff" stroke-width=".644" d="M21.53 21.871c.89 0 1.611.721 1.611 1.611v1.153a1.61 1.61 0 1 1-3.222 0v-1.153c0-.89.721-1.611 1.611-1.611z"/><path fill="#eb6e46" style="fill:var(--color10, #eb6e46);stroke:var(--color3, #fff)" stroke="#fff" stroke-width=".644" d="M33.557 12.062c.89 0 1.611.721 1.611 1.611v4.021a1.61 1.61 0 1 1-3.222 0v-4.021c0-.89.721-1.611 1.611-1.611z"/><path fill="#20bff7" style="fill:var(--color11, #20bff7);stroke:var(--color3, #fff)" stroke="#fff" stroke-width=".644" d="M33.557 14.033c.89 0 1.611.721 1.611 1.611v4.021a1.61 1.61 0 1 1-3.222 0v-4.021c0-.89.721-1.611 1.611-1.611z"/><path fill="#2280ff" style="fill:var(--color12, #2280ff);stroke:var(--color3, #fff)" stroke="#fff" stroke-width=".644" d="M33.557 19.003c.89 0 1.611.721 1.611 1.611v4.021a1.61 1.61 0 1 1-3.222 0v-4.021c0-.89.721-1.611 1.611-1.611z"/>
</symbol>

<symbol id="icon-logotext" viewBox="0 0 125 32"><path d="m20.575 21.796 6.657 3.449c-1.392 1.816-3.137 3.275-5.235 4.376s-4.387 1.652-6.869 1.652c-2.784 0-5.325-.686-7.625-2.058a15.746 15.746 0 0 1-5.477-5.506c-1.352-2.318-2.027-4.878-2.027-7.68 0-2.125.393-4.106 1.18-5.941a15.456 15.456 0 0 1 3.238-4.869c1.392-1.41 3.006-2.512 4.841-3.304S13.05.727 15.128.727c2.481 0 4.771.551 6.869 1.652s3.843 2.579 5.235 4.434l-6.657 3.42a7.38 7.38 0 0 0-2.511-1.797 7.102 7.102 0 0 0-2.935-.638c-1.452 0-2.764.386-3.933 1.159a8.191 8.191 0 0 0-2.784 3.014c-.686 1.236-1.029 2.589-1.029 4.057a8.33 8.33 0 0 0 1.029 4.057c.686 1.236 1.614 2.232 2.784 2.985s2.481 1.13 3.933 1.13a7.223 7.223 0 0 0 2.995-.638 7.909 7.909 0 0 0 2.451-1.768zM45.032 31.273c-2.784 0-5.325-.686-7.625-2.058a15.746 15.746 0 0 1-5.477-5.506c-1.352-2.318-2.027-4.878-2.027-7.68 0-2.125.393-4.106 1.18-5.941a15.456 15.456 0 0 1 3.238-4.869c1.392-1.41 3.006-2.512 4.841-3.304S42.954.727 45.032.727c2.784 0 5.315.686 7.595 2.058a15.343 15.343 0 0 1 5.477 5.535c1.372 2.318 2.058 4.888 2.058 7.709 0 2.106-.393 4.077-1.18 5.912s-1.876 3.458-3.268 4.869a15.07 15.07 0 0 1-4.811 3.275c-1.815.792-3.772 1.188-5.87 1.188zm0-7.072c1.472 0 2.794-.377 3.964-1.13s2.088-1.748 2.753-2.985c.686-1.236 1.029-2.589 1.029-4.057 0-1.507-.353-2.879-1.059-4.115a7.875 7.875 0 0 0-2.814-2.985 7.002 7.002 0 0 0-3.873-1.13c-1.452 0-2.764.377-3.934 1.13S39 10.687 38.314 11.943s-1.029 2.618-1.029 4.086c0 1.526.353 2.908 1.059 4.144s1.644 2.222 2.814 2.956a7.385 7.385 0 0 0 3.873 1.072zM83.75 21.796l6.657 3.449c-1.392 1.816-3.137 3.275-5.235 4.376s-4.387 1.652-6.868 1.652c-2.784 0-5.325-.686-7.625-2.058a15.746 15.746 0 0 1-5.477-5.506c-1.351-2.318-2.027-4.878-2.027-7.68 0-2.125.393-4.106 1.18-5.941a15.456 15.456 0 0 1 3.238-4.869c1.392-1.41 3.006-2.512 4.841-3.304S76.226.727 78.304.727c2.481 0 4.771.551 6.868 1.652s3.843 2.579 5.235 4.434l-6.657 3.42a7.38 7.38 0 0 0-2.511-1.797 7.102 7.102 0 0 0-2.935-.638c-1.452 0-2.763.386-3.934 1.159a8.191 8.191 0 0 0-2.784 3.014c-.686 1.236-1.029 2.589-1.029 4.057a8.33 8.33 0 0 0 1.029 4.057c.686 1.236 1.614 2.232 2.784 2.985s2.481 1.13 3.934 1.13a7.223 7.223 0 0 0 2.995-.638 7.909 7.909 0 0 0 2.451-1.768zM117.708 1.539h7.383V30.52h-7.383l-.333-3.594c-.827 1.294-1.926 2.347-3.298 3.159-1.352.792-2.955 1.188-4.811 1.188-2.239 0-4.337-.406-6.294-1.217s-3.681-1.932-5.174-3.362a16.089 16.089 0 0 1-3.48-4.956c-.827-1.874-1.241-3.884-1.241-6.028 0-2.067.393-4.009 1.18-5.825.807-1.816 1.926-3.41 3.359-4.782s3.086-2.444 4.962-3.217c1.876-.773 3.893-1.159 6.052-1.159 1.997 0 3.782.425 5.356 1.275 1.594.85 2.945 1.932 4.055 3.246l-.333-3.709zm-8.623 22.923c1.573 0 2.965-.377 4.176-1.13s2.158-1.768 2.844-3.043c.686-1.295 1.029-2.715 1.029-4.26 0-1.565-.343-2.985-1.029-4.26a7.843 7.843 0 0 0-2.874-3.072c-1.21-.753-2.592-1.13-4.145-1.13s-2.975.386-4.266 1.159a8.69 8.69 0 0 0-3.056 3.043c-.746 1.275-1.12 2.695-1.12 4.26s.383 2.985 1.15 4.26a8.69 8.69 0 0 0 3.056 3.043 8.258 8.258 0 0 0 4.236 1.13z"/>
</symbol>
<symbol 
id="icon-logo" viewBox="0 0 31 32"><path fill="#101010" style="fill:var(--color18, #101010)" d="M31.256 16c0 8.631-6.997 15.628-15.628 15.628S0 24.631 0 16 6.997.372 15.628.372 31.256 7.369 31.256 16z"/><path fill="#fff" style="fill:var(--color3, #fff)" d="m20.427 19.677 3.387 1.711c-.826 1.073-1.876 1.932-3.151 2.576-1.263.644-2.635.966-4.116.966-1.675 0-3.205-.401-4.589-1.203a9.328 9.328 0 0 1-3.296-3.22c-.813-1.356-1.22-2.852-1.22-4.491 0-1.243.237-2.401.71-3.474a9.029 9.029 0 0 1 1.949-2.847c.838-.825 1.809-1.469 2.914-1.932s2.283-.695 3.533-.695c1.481 0 2.853.322 4.116.966 1.275.644 2.325 1.508 3.151 2.593l-3.387 1.711a5.119 5.119 0 0 0-1.785-1.288 5.068 5.068 0 0 0-2.094-.458c-.996 0-1.9.254-2.714.763a5.54 5.54 0 0 0-1.912 1.983 5.336 5.336 0 0 0-.692 2.677c0 .96.237 1.853.71 2.677a5.598 5.598 0 0 0 1.912 1.966 5.069 5.069 0 0 0 2.695.746c.753 0 1.469-.158 2.149-.474s1.257-.734 1.73-1.254z"/>
</symbol>
<symbol id="icon-menu-close" viewBox="0 0 32 32">
<path stroke-linejoin="round" stroke-linecap="round" stroke-miterlimit="4" stroke-width="3.4286" d="M24 8l-16 16M8 8l16 16"></path>
</symbol>
<symbol id="icon-burger-menu" viewBox="0 0 36 32">
<path d="M1.2 3.999c0-1.326 1.075-2.401 2.401-2.401h28.81c1.326 0 2.401 1.075 2.401 2.401s-1.075 2.401-2.401 2.401h-28.81c-1.326 0-2.401-1.075-2.401-2.401v0zM1.2 16.003c0-1.326 1.075-2.401 2.401-2.401h28.81c1.326 0 2.401 1.075 2.401 2.401s-1.075 2.401-2.401 2.401h-28.81c-1.326 0-2.401-1.075-2.401-2.401v0zM15.606 28.007c0-1.326 1.075-2.401 2.401-2.401v0h14.405c1.326 0 2.401 1.075 2.401 2.401s-1.075 2.401-2.401 2.401h-14.405c-1.326 0-2.401-1.075-2.401-2.401v0z"></path>
</symbol>
</defs>
</svg>